<?xml version="1.0" encoding="UTF-8"?>
<svg width="96px" height="24px" viewBox="0 0 96 24" version="1.1" xmlns="http://www.w3.org/2000/svg" xmlns:xlink="http://www.w3.org/1999/xlink">
    <!-- Generator: Sketch 61 (89581) - https://sketch.com -->
    <title>AoLink官网-logo@2x</title>
    <desc>Created with Sketch.</desc>
    <g id="页面-1" stroke="none" stroke-width="1" fill="none" fill-rule="evenodd">
        <g id="H5-资产页" transform="translate(-15.000000, -69.000000)">
            <g id="AoLink官网-logo" transform="translate(15.000000, 69.000000)">
                <g id="编组-69" transform="translate(31.334149, 3.285190)" stroke-width="0.631578947">
                    <path d="M20.3964861,3.83620786 C23.9136523,3.83620786 26.2822749,6.60095164 26.2822749,10.2455447 C26.2822749,13.8395536 23.9374975,16.6547235 20.3964861,16.6547235 C16.9274215,16.6547235 14.5108344,13.9149557 14.5108344,10.2455447 C14.5108344,6.55068357 16.9274215,3.83620786 20.3964861,3.83620786 Z M5.62321543,0.631578947 C9.31979851,0.631578947 11.2688873,3.20888312 11.2688873,6.27512609 L11.2688873,6.27512609 L11.2688873,16.4510339 L7.77389868,16.4510339 L7.77389868,10.8522025 L4.36860743,10.8522025 L4.36860743,7.83039584 L7.77389868,7.83039584 L7.77389868,5.67523632 C7.77389868,4.60876563 7.21389977,3.6532459 5.62321543,3.6532459 C4.03253109,3.6532459 3.49486028,4.60876563 3.49486028,5.67523632 L3.49486028,5.67523632 L3.49486028,16.4510339 L4.93698743e-11,16.4510339 L4.93698743e-11,6.27512609 C4.93698743e-11,3.12015029 2.01632971,0.631578947 5.62321543,0.631578947 Z M32.3919708,0.898252515 L32.3919708,16.4510898 L29.524222,16.4510898 L29.524222,0.898252515 L32.3919708,0.898252515 Z M38.5015384,5.65307408 L38.5015384,16.4510898 L35.6339179,16.4510898 L35.6339179,5.65307408 L38.5015384,5.65307408 Z M46.2465748,5.38631667 C49.0056461,5.38631667 50.6481011,6.7026433 50.7451102,8.72714739 L50.7496641,8.91900083 L50.7496641,16.4510898 L47.8820436,16.4510898 L47.8820436,9.89659896 C47.8820436,8.89678269 47.3219164,8.23037825 46.2465748,8.23037825 C45.2278301,8.23037825 44.6714939,8.82848085 44.6157542,9.74155252 L44.6111059,9.89659896 L44.6111059,16.4510898 L41.7434855,16.4510898 L41.7434855,8.91900083 C41.7434855,6.78619919 43.4012824,5.38631667 46.2465748,5.38631667 Z M56.7871144,2.26113275 L56.7871144,8.42310314 L57.585793,8.42310314 L60.2724788,4.56105951 L63.5763954,4.56105951 L59.94577,10.0719965 L63.9031042,16.3642015 L60.4903703,16.3642015 L57.4769756,11.5476163 L56.7871144,11.5476163 L56.7871144,16.3642015 L53.9916112,16.3642015 L53.9916112,2.26113275 L56.7871144,2.26113275 Z M20.3726409,7.05336426 C18.7217038,7.05336426 17.5732974,8.15926178 17.5732974,10.2455447 C17.5732974,12.2814015 18.6740135,13.437409 20.3964861,13.437409 C22.1190959,13.437409 23.219812,12.2814015 23.219812,10.2455447 C23.219812,8.20952985 22.1190959,7.05336426 20.3726409,7.05336426 Z" id="形状结合" stroke="#000000" fill="#000000"></path>
                    <path d="M34.9816401,2.39909436 C34.9816401,3.6152743 35.8042778,4.29375765 36.876377,4.29375765 C37.9483334,4.29375765 38.7711138,3.6152743 38.7711138,2.39909436 C38.7711138,1.1826202 37.9483334,0.504283966 36.876377,0.504283966 C35.8042778,0.504283966 34.9816401,1.1826202 34.9816401,2.39909436 Z" id="Fill-10" stroke="#E3007F" fill="#E3007F"></path>
                </g>
                <path d="M8.8643703,12.653877 C8.88939062,12.9012542 8.89789111,13.1933783 8.95194142,13.4769338 C9.05707487,14.0294467 9.23726928,14.5550638 9.71818867,14.9103413 C10.3522773,15.3787554 11.5263878,15.2740287 12.2326505,14.7271488 C12.9117276,14.2012144 13.332101,13.5125568 13.5910452,12.7183791 C13.9409287,11.6455648 14.1070893,10.5599771 13.7293787,9.45550679 C13.5409244,8.90458072 13.1904796,8.47440775 12.6093987,8.34849765 C11.75959,8.16427382 10.9849225,8.35278193 10.3432155,8.97669935 C9.31441526,9.97707763 8.94440324,11.2324496 8.8643703,12.653877 M14.0950603,16.7293335 C13.6702763,17.0147932 13.2830227,17.3000148 12.8718715,17.546202 C11.9032163,18.1263246 10.8442634,18.299203 9.73262347,18.1432237 C8.60221831,17.9846262 7.62337855,17.5187509 6.85432454,16.6657041 C6.18735663,15.9258732 5.79713589,15.0508496 5.62632411,14.0831588 C5.25719422,11.9921151 5.6288101,10.0338839 6.81462884,8.26114604 C7.72586563,6.89906385 8.96132404,5.92621601 10.5959848,5.5411866 C11.6901426,5.28349538 12.7712289,5.3429992 13.7977836,5.85203458 C14.245503,6.07394417 14.5831971,6.40216726 14.7783075,6.86518634 C14.7907374,6.89485892 14.8192863,6.91802574 14.8621897,6.97126183 C14.9196883,6.80631723 14.9679647,6.66414276 15.0186469,6.52292035 C15.1767079,6.08211603 15.4994059,5.83957844 15.9628431,5.8021307 C16.2725497,5.77698042 16.5861057,5.78102668 16.8972558,5.79189605 C17.714506,5.82037854 18.1950244,6.42303327 18.0251749,7.2172903 C17.6136228,9.14291337 17.1817015,11.0644108 16.7837822,12.9928107 C16.6844227,13.4744744 16.6557937,13.9750999 16.6437647,14.4682675 C16.6311743,14.9875376 16.9494616,15.2756948 17.4746477,15.2654601 C18.202723,15.2511792 18.7479574,14.8918554 19.1866149,14.3439442 C19.7382648,13.6548106 20.0089975,12.8442099 20.1504585,11.9986209 C20.4021854,10.4942055 20.3607254,8.99264638 19.8022591,7.55558937 C18.9854098,5.45407301 17.4363955,4.12261545 15.257623,3.49552449 C14.0592139,3.15071967 12.8331381,3.0250476 11.59367,3.1018472 C8.74520302,3.27853388 6.46113665,4.47709956 4.89496095,6.87470696 C4.15557847,8.00662835 3.74274322,9.26763338 3.58652662,10.6121818 C3.41755927,12.0654238 3.48604438,13.5027188 3.94595311,14.8938389 C4.78541687,17.43251 6.49746423,19.1419359 9.06357053,19.9963314 C9.97681215,20.3003563 10.9194045,20.4332482 11.8821254,20.4782331 C13.4071619,20.5496376 14.8945878,20.379536 16.3432001,19.8977138 C16.4573954,19.8597106 16.570468,19.8174233 16.6806536,19.7694235 C17.0583642,19.6048756 17.4006293,19.6811992 17.6832306,19.9541234 C18.1562108,20.4110334 18.3907763,20.9760817 18.3663975,21.6345113 C18.3473917,22.1496558 18.0664745,22.4571715 17.5806633,22.6272731 C16.2223487,23.103145 14.8262631,23.3667073 13.3883165,23.4604853 C11.7810016,23.5652914 10.1938955,23.4736555 8.63229081,23.0802956 C6.42994145,22.5254819 4.51388226,21.4657585 2.97152398,19.8019523 C1.55643252,18.2753222 0.694354242,16.4637878 0.267725737,14.4416892 C0.0349245057,13.3384089 -0.0423818625,12.2213238 0.0215322199,11.1014619 C0.165960404,8.57231137 1.03060487,6.3052157 2.66759127,4.34785726 C4.38044056,2.29965632 6.56554836,0.979464824 9.16710012,0.344678035 C10.673612,-0.0228969166 12.2032997,-0.0795445565 13.7470213,0.0946826385 C15.4132782,0.28271472 16.9896385,0.755730447 18.4508411,1.55839736 C21.0029938,2.96046611 22.6432681,5.06642543 23.2632427,7.9041231 C23.5385464,9.1646521 23.5594769,10.4423975 23.4025385,11.7272834 C23.2373403,13.0802417 22.8168867,14.334503 22.0684423,15.4806259 C21.1602529,16.8714286 19.882292,17.7484356 18.2511597,18.0734852 C17.2899625,18.2649288 16.3120049,18.2949981 15.373342,17.8966398 C14.8973946,17.6947235 14.5348405,17.3662624 14.2476682,16.9477522 C14.194901,16.8707939 14.1407705,16.7947877 14.0950603,16.7293335" id="Fill-13" fill="#004BF2"></path>
            </g>
        </g>
    </g>
</svg>